<svg xmlns="http://www.w3.org/2000/svg" viewBox="0 0 715 72" aria-label="Extension logo"><defs><style>.a{fill:#ffcd34;}.b{fill:#7a0019;stroke:#7a0019;stroke-miterlimit:10;stroke-width:0.3px;}</style></defs><title>Extension logo</title><path d="M116.16 61.35a2.43 2.43 0 0 1 .84.54 2.7 2.7 0 0 1 .54.74 2.62 2.62 0 0 1-.1 2.46 2.3 2.3 0 0 1-1 1 2.54 2.54 0 0 1-1.3.36 2.63 2.63 0 0 1-1.33-.36 2.37 2.37 0 0 1-1-1 2.55 2.55 0 0 1-.33-1.32 2.34 2.34 0 0 1 .22-1.07 3.07 3.07 0 0 1 .62-.82 2.54 2.54 0 0 1 .75-.5 2.63 2.63 0 0 1 1.08-.25 2.46 2.46 0 0 1 1 .22zM118 62.5a3.46 3.46 0 0 0-.6-.87 3.25 3.25 0 0 0-1-.66 2.84 2.84 0 0 0-1.24-.26 3 3 0 0 0-1.32.3 3.15 3.15 0 0 0-.87.62 3.32 3.32 0 0 0-.63.95 3.17 3.17 0 0 0-.25 1.22 3.12 3.12 0 0 0 .4 1.54 2.8 2.8 0 0 0 1.14 1.13 3 3 0 0 0 2.9.1 3.08 3.08 0 0 0 1.5-1.62 3.24 3.24 0 0 0 .23-1.16 3.1 3.1 0 0 0-.27-1.3zm-2.92 1.73a1 1 0 0 1 .45.08.46.46 0 0 1 .2.22 1.14 1.14 0 0 1 .1.45 3.77 3.77 0 0 0 0 .53h.74a1.84 1.84 0 0 1 0-.46 2.55 2.55 0 0 0 0-.43 1.16 1.16 0 0 0-.13-.33.64.64 0 0 0-.25-.2 1.46 1.46 0 0 0-.38-.14.86.86 0 0 0 .37-.1.83.83 0 0 0 .33-.28.92.92 0 0 0 .12-.46.83.83 0 0 0-.12-.47.88.88 0 0 0-.3-.33 1.32 1.32 0 0 0-.48-.17 3.44 3.44 0 0 0-.6 0h-1.23v3.42h.8v-1.33zm.4-1.58a.46.46 0 0 1 .27.17.5.5 0 0 1 .1.3.6.6 0 0 1-.08.3.42.42 0 0 1-.25.2 1.14 1.14 0 0 1-.37.07h-.43v-1.1h.5a1 1 0 0 1 .27.06zM103.46 51.27l-18.04-30h4.97V5.65H60.35v15.64h4.98l-6.9 11.45-6.9-11.45h4.98V5.64H26.5v15.64h4.95l-18.04 30H6.98v15.6H37.6V51.3h-5.5l9.4-15.64 3.65 6.05h-3.5v15.63h33.58V41.7h-3.5l3.65-6.06 9.4 15.63h-5.5V66.9h30.62V51.26h-6.44z" class="a"/><path d="M508.23 26.2l.14 4.86h-.64c-.6-3.12-1.32-3.63-5.45-3.63V41.9a2.16 2.16 0 0 0 2.45 2.46V45h-7.6v-.68a2.17 2.17 0 0 0 2.45-2.46V27.43c-4.1 0-4.87.5-5.46 3.63h-.63l.13-4.86zM483 25.83c-4.67 0-8.45 3.83-8.45 9.8s3.78 9.78 8.45 9.78 8.44-3.82 8.44-9.78-3.8-9.8-8.44-9.8zm0 18.42c-3.54 0-5.57-3.4-5.57-8.7s2-8.66 5.57-8.66 5.5 3.4 5.5 8.66-2 8.74-5.5 8.74zM523 42.77c-.33-.88-6.67-16.85-6.67-16.85h-.63s-5.7 14.64-6.34 16.36-1.53 2.13-2.18 2.13v.7h5.16v-.7a1.5 1.5 0 0 1-1.6-1.3 2.36 2.36 0 0 1 .07-.72c0-.14.6-1.58 1.33-3.4h6.58l1.22 3.28a3.3 3.3 0 0 1 .2.83c0 .73-.6 1.3-1.7 1.3v.7H525v-.7a2.5 2.5 0 0 1-2-1.63zm-10.4-5.16l2.8-7.54 2.77 7.55zM455.72 40.2c-.84 2-1.9 3.67-4.9 3.67h-3c-1.1 0-1.58-.38-1.58-1.32v-6.7h4.08c1.58 0 2.4.87 2.63 2.54h.63v-6.6H453c-.1 1.83-1 2.7-2.46 2.7h-4.2V28.2c0-.7.42-.84 1-.84h3.62c2.26 0 3.05.93 3.54 3.05h.63l-.13-4.3h-13.66v.7c1.58 0 2.3.74 2.3 2.45v12.6c0 1.72-.72 2.47-2.3 2.47V45h13.94l1.24-4.9zM470.07 25.8l.54 6.25h-.67c-.93-3.07-2.5-5-4.76-5a2.4 2.4 0 0 0-2.55 2.55c0 1.67 1.22 2.63 2.75 3.68s2.55 1.7 3 2.07a6.1 6.1 0 0 1 2.75 4.76 5.26 5.26 0 0 1-5.12 5.4h-.16c-1.87 0-3.05-.93-3.95-.93-.52 0-.76.5-.9.93h-.62l-.8-6.3h.7c1.15 3.23 2.83 5.12 5.25 5.12a3 3 0 0 0 3.1-3.18 4 4 0 0 0-2.08-3.43l-3.72-2.62a5 5 0 0 1-2.37-4.5 4.5 4.5 0 0 1 4.25-4.77h.43c1.32 0 2.7.84 3.5.84a.84.84 0 0 0 .87-.8zM432.54 26.2v.68c1.47 0 2.36 1.13 2.36 2.84v9.95l-9.83-13.47h-4.26v.68a2.43 2.43 0 0 1 1.9.8l.53.73v12.7c0 2.15-.74 3.28-2.46 3.28v.68h6v-.68c-1.47 0-2.36-1-2.36-2.63v-11.6c3.6 4.85 11.34 15.28 11.34 15.28h.4V30.18c0-2.4 1-3.3 2.45-3.3v-.68zM411.58 26.2v.68c1.46 0 2.36 1.13 2.36 2.84v9.95L404.1 26.2h-4.28v.68a2.46 2.46 0 0 1 1.88.83l.54.75v12.68c0 2.16-.74 3.3-2.46 3.3v.67h6v-.68c-1.47 0-2.36-1-2.36-2.63V30.17c3.58 4.82 11.34 15.3 11.34 15.3h.4v-15.3c0-2.4 1-3.3 2.45-3.3v-.68zM386.23 20.75v-.68h-5.84l-7.62 20.43-7.66-20.43h-5.95v.68c2.5 0 3.2 1.32 3.2 3.83v15.36c0 3.55-1 4.47-3.24 4.47v.7h7.7v-.7c-2.16 0-3.18-.92-3.18-4.46V23.9l7.9 21.26h.74l8.1-21.65v16.44c0 3.55-.8 4.47-3 4.47v.7h8.83v-.7c-2.16 0-3-.92-3-4.46v-15.7c-.02-2.85 1.54-3.5 3-3.5zM393.46 29.35a2.16 2.16 0 0 1 2.45-2.46v-.7h-7.6v.68a2.17 2.17 0 0 1 2.46 2.46V42a2.17 2.17 0 0 1-2.46 2.46v.68h7.6v-.68a2.16 2.16 0 0 1-2.44-2.46zM323.75 25.86c-4.66 0-8.44 3.83-8.44 9.8s3.8 9.78 8.45 9.78 8.45-3.83 8.45-9.8-3.78-9.78-8.45-9.78zm0 18.42c-3.53 0-5.55-3.4-5.55-8.7s2-8.66 5.55-8.66 5.57 3.4 5.57 8.67-2 8.73-5.57 8.73zM348.58 26.2h-13.75v.68c1.58 0 2.3.75 2.3 2.46V42c0 1.7-.72 2.46-2.3 2.46v.68h7.32v-.68a2.15 2.15 0 0 1-2.4-2.46v-6.13h3.94c1.57 0 2.4.88 2.62 2.55h.63v-6.57h-.68c-.1 1.82-1 2.7-2.46 2.7h-4v-6.33c0-.7.44-.84 1-.84h3.8c2.25 0 3 .93 3.53 3.05h.64zM285.45 26.23l.14 4.86h-.6c-.6-3.13-1.32-3.64-5.45-3.64v14.47A2.16 2.16 0 0 0 282 44.4v.67h-7.6v-.68a2.17 2.17 0 0 0 2.45-2.47V27.45c-4.1 0-4.87.5-5.46 3.63h-.64l.14-4.86zM300 26.9v-.67h5.8v.68a4 4 0 0 0-2.63 1.83c-.62 1-4.67 7.76-4.67 7.76V42c0 1.84.67 2.46 2.63 2.46v.68h-8v-.68c2 0 2.63-.62 2.63-2.46v-5.28s-4.47-7.12-5-8a3.67 3.67 0 0 0-2.63-1.87v-.68h7.46v.68c-1 0-1.77.46-1.77 1a2.18 2.18 0 0 0 .3 1c.1.22 3.77 6.24 3.77 6.24l3.74-6.5a1.32 1.32 0 0 0 .14-.6c-.03-.47-.3-1.1-1.78-1.1zM255.3 25.8l.54 6.25h-.68c-.93-3.07-2.5-5-4.76-5a2.4 2.4 0 0 0-2.55 2.55c0 1.67 1.22 2.63 2.75 3.68s2.55 1.7 3 2.07a6.1 6.1 0 0 1 2.75 4.76 5.26 5.26 0 0 1-5.18 5.35H251c-1.87 0-3.05-.93-3.95-.93-.5 0-.76.5-.88.93h-.63l-.8-6.3h.7c1.15 3.23 2.85 5.12 5.25 5.12a3 3 0 0 0 3.08-3.18 4 4 0 0 0-2.07-3.44l-3.7-2.6a5.05 5.05 0 0 1-2.34-4.5 4.5 4.5 0 0 1 4.23-4.77h.42c1.32 0 2.63.82 3.5.82a.83.83 0 0 0 .87-.77s0 0 0-.05zM265.7 29.36a2.16 2.16 0 0 1 2.47-2.45v-.67h-7.62v.68a2.16 2.16 0 0 1 2.45 2.46V42a2.17 2.17 0 0 1-2.46 2.46v.68h7.62v-.68A2.17 2.17 0 0 1 265.7 42zM222.4 40.2c-.83 2-1.9 3.67-4.9 3.67h-3c-1.1 0-1.58-.38-1.58-1.32v-6.7H217c1.57 0 2.4.87 2.63 2.54h.64v-6.6h-.68c-.12 1.83-1 2.7-2.47 2.7h-4.22V28.2c0-.7.46-.84 1-.84h3.66c2.25 0 3 .93 3.53 3.05h.63l-.16-4.3H208v.7c1.6 0 2.3.74 2.3 2.45v12.6c0 1.72-.7 2.47-2.3 2.47V45h14l1.22-4.9zM240.37 43.6c-.43-.54-4.63-6.3-5.57-7.56 3.4-.72 4.58-2.45 4.58-4.92 0-2.95-2.2-4.9-6.24-4.9h-7.55v.67c1.57 0 2.3.74 2.3 2.45V42c0 1.7-.73 2.46-2.3 2.46v.68h7.3v-.68c-1.58 0-2.3-.75-2.3-2.46v-5.6h1.4l6.13 8.75h4.13v-.6a2.63 2.63 0 0 1-1.9-.96zm-9.77-8.3v-6.4c0-1.32.25-1.62 1.7-1.62 3.2 0 4.38 1.57 4.38 3.95 0 2.9-2.2 4.08-5.45 4.08zM182.34 29.35a2.16 2.16 0 0 1 2.45-2.46v-.7h-7.62v.68a2.16 2.16 0 0 1 2.45 2.46V42a2.16 2.16 0 0 1-2.45 2.46v.68h7.6v-.68a2.16 2.16 0 0 1-2.44-2.46zM194.8 26.9v-.7h-6.92v.68c.84 0 1.72.54 2.3 2S197 45.4 197 45.4h.45s5.45-15.23 5.94-16.56 1.3-2 2.1-2v-.64h-5.35v.68c1.17 0 1.82.64 1.82 1.47a2.3 2.3 0 0 1-.14.74l-3.95 11.14L193.14 29a2.34 2.34 0 0 1-.16-.86c.02-.8.63-1.25 1.82-1.25zM131.36 20.75c2.05 0 3.13 1 3.13 3.95v11.7c0 5.9 3.23 9 8.9 9 4.85 0 8.58-3 8.58-8.66V24c0-2 .58-3.3 2.95-3.3V20h-7.48v.68c2.12 0 3 .93 3.05 3.5s.18 9.2.18 13.15a6.28 6.28 0 0 1-6.68 6.53c-3.74 0-6.7-2.2-6.7-6.88V24c0-1.93.75-3.24 2.96-3.24v-.68h-8.88zM167.2 26.2v.68c1.47 0 2.36 1.13 2.36 2.84v9.95l-9.82-13.47h-4.2v.68a2.4 2.4 0 0 1 1.85.83l.53.75v12.68c0 2.16-.74 3.3-2.45 3.3v.67h6v-.68c-1.47 0-2.36-1-2.36-2.63V30.17c3.57 4.82 11.3 15.3 11.3 15.3h.38v-15.3c0-2.4 1-3.3 2.45-3.3v-.68zM535.63 44.35a5.5 5.5 0 0 0 2.63-.74c.4-.33.62-1.2.62-2.62V24.24a4 4 0 0 0-.6-2.63 4.6 4.6 0 0 0-2.72-.75v-.7h20l.13 5.38h-1a5.26 5.26 0 0 0-1.44-3.2 7.9 7.9 0 0 0-4.26-.75h-5c-.55 0-.9.1-1 .26a1.82 1.82 0 0 0-.2 1v8.4h5.8a4.45 4.45 0 0 0 3.07-.7 6.3 6.3 0 0 0 1.07-2.9h.88v8.7h-.88a6.28 6.28 0 0 0-1.08-2.9 4.45 4.45 0 0 0-3.05-.7h-5.8V42c0 .75.25 1.18.72 1.32a24.44 24.44 0 0 0 4.24.2 14.15 14.15 0 0 0 5.65-.84 7.7 7.7 0 0 0 3.3-4.05h1L556 45h-20.37zM559.45 44.6a3.4 3.4 0 0 0 1.75-.6 24.83 24.83 0 0 0 2.36-2.63L568 35.9l-3.15-4.63a25.2 25.2 0 0 0-2.88-3.72 3.46 3.46 0 0 0-2.2-.8v-.52h8.58v.53a7.3 7.3 0 0 0-1.62.17.76.76 0 0 0-.57.8 2.16 2.16 0 0 0 .28.92 6.2 6.2 0 0 0 .38.63l3 4.28 3.2-3.95a7.9 7.9 0 0 0 .95-1.3 1.32 1.32 0 0 0 .13-.63.8.8 0 0 0-.6-.83 5.58 5.58 0 0 0-1.33-.14v-.53h6.76v.53a4 4 0 0 0-1.78.37 9.57 9.57 0 0 0-2.45 2.34l-4.13 5.18 5.4 7.83a5.63 5.63 0 0 0 1.4 1.6 4.72 4.72 0 0 0 1.7.5v.54h-8.4v-.53a6.08 6.08 0 0 0 1.7-.2.68.68 0 0 0 .46-.7 3.6 3.6 0 0 0-.63-1.5q-.63-1-3.5-5.26l-3.35 4.2c-.5.63-.83 1.08-1 1.32a2.12 2.12 0 0 0-.45 1c0 .4.22.68.7.86a6.3 6.3 0 0 0 1.47.22V45h-6.58zM581.65 26.23h16.13l.16 4.86h-.68a5.86 5.86 0 0 0-1.32-3 5.26 5.26 0 0 0-3.26-.7h-1.54V42c0 1.1.17 1.78.5 2a4.9 4.9 0 0 0 2.27.53v.53h-8.3v-.53a4 4 0 0 0 2.26-.6 3.86 3.86 0 0 0 .43-2.3V27.42h-1.6a5.4 5.4 0 0 0-3.22.7 5.1 5.1 0 0 0-1.32 3h-.7zM600.36 44.6a4.32 4.32 0 0 0 2-.58c.3-.26.46-.93.46-2v-12.7a3 3 0 0 0-.46-2 3.46 3.46 0 0 0-2-.58v-.53h15.16l.1 4.1h-.73a4.07 4.07 0 0 0-1.1-2.44 6.1 6.1 0 0 0-3.23-.55h-3.88c-.43 0-.7 0-.8.2a1.32 1.32 0 0 0-.15.77v6.37h4.4a3.38 3.38 0 0 0 2.34-.54 4.7 4.7 0 0 0 .8-2.2h.7v6.58h-.67a4.84 4.84 0 0 0-.82-2.2 3.37 3.37 0 0 0-2.3-.53h-4.42v7.05c0 .58.18.9.54 1a17.67 17.67 0 0 0 3.22.16 10.92 10.92 0 0 0 4.3-.64 5.82 5.82 0 0 0 2.46-3.07h.8l-1.33 4.82h-15.4zM618.93 44.6a3.43 3.43 0 0 0 2.28-.8 5.16 5.16 0 0 0 .5-2.9V28.34l-.37-.46a3 3 0 0 0-1.07-.9 4 4 0 0 0-1.32-.22v-.53h4.88l11 13.66V30.4a4.57 4.57 0 0 0-.7-3.05 3.54 3.54 0 0 0-2-.6v-.52h6.7v.53a3.33 3.33 0 0 0-2.16.8 4.8 4.8 0 0 0-.55 2.87v15h-.48L623 29.8v11.1a4.72 4.72 0 0 0 .67 3.05 3.5 3.5 0 0 0 2 .63v.53h-6.7zM641.48 39.38a10 10 0 0 0 1.7 3.07 5.26 5.26 0 0 0 4.2 2 3.5 3.5 0 0 0 2.37-.86 3 3 0 0 0 1-2.43 3.4 3.4 0 0 0-1-2.42 17.7 17.7 0 0 0-2.75-2l-2.43-1.53a8.4 8.4 0 0 1-1.75-1.4 4.33 4.33 0 0 1-1.22-3 4.9 4.9 0 0 1 1.4-3.57 5.13 5.13 0 0 1 3.8-1.43 7.15 7.15 0 0 1 2.35.5 10.3 10.3 0 0 0 1.57.46.9.9 0 0 0 .74-.25 1.88 1.88 0 0 0 .32-.7h.58l.64 6.07h-.68a6.45 6.45 0 0 0-2.24-3.83A5.26 5.26 0 0 0 647 27a3.2 3.2 0 0 0-2.05.7 2.3 2.3 0 0 0-.87 1.9 2.78 2.78 0 0 0 .67 1.9 8.53 8.53 0 0 0 2.07 1.65l2.5 1.55a13.16 13.16 0 0 1 3.33 2.63 4.62 4.62 0 0 1 1 2.9A4.8 4.8 0 0 1 652 44a6.25 6.25 0 0 1-4.33 1.5 8.54 8.54 0 0 1-2.76-.5 9.32 9.32 0 0 0-1.65-.5.74.74 0 0 0-.68.3 2.16 2.16 0 0 0-.22.67h-.63l-.84-6.08zM656.28 44.6a4.82 4.82 0 0 0 2.25-.54c.34-.26.5-.95.5-2V29.32a2.78 2.78 0 0 0-.5-2 4.1 4.1 0 0 0-2.25-.54v-.53h8.44v.53a4.1 4.1 0 0 0-2.25.54 2.78 2.78 0 0 0-.53 2V42c0 1.1.18 1.78.53 2a4.82 4.82 0 0 0 2.25.53v.53h-8.44zM669.42 28.35a9.6 9.6 0 0 1 13 0 9.7 9.7 0 0 1 2.86 7.32 9.58 9.58 0 0 1-3 7.38 9 9 0 0 1-6.4 2.46 8.88 8.88 0 0 1-6.66-2.7 10.78 10.78 0 0 1 .17-14.5zm2.13 14a5.47 5.47 0 0 0 8.67 0q1.8-2.1 1.8-6.7t-1.8-6.65a5.5 5.5 0 0 0-4.3-2.08 5.44 5.44 0 0 0-4.35 2.15 10.37 10.37 0 0 0-1.78 6.67 10.36 10.36 0 0 0 1.75 6.6zM687.22 44.6a3.43 3.43 0 0 0 2.28-.8 5.26 5.26 0 0 0 .5-2.9V28.34l-.4-.46a2.87 2.87 0 0 0-1.06-.9 3.83 3.83 0 0 0-1.32-.22v-.53h4.87L703 39.9v-9.5a4.65 4.65 0 0 0-.7-3.05 3.58 3.58 0 0 0-2-.6v-.52h6.7v.53a3.37 3.37 0 0 0-2.17.8 4.92 4.92 0 0 0-.54 2.87v15h-.5L691.14 29.8v11.1a4.7 4.7 0 0 0 .68 3.05 3.47 3.47 0 0 0 2 .63v.53h-6.6z" class="b"/></svg>