<svg xmlns="http://www.w3.org/2000/svg" viewBox="0 0 709 66" aria-label="Extension logo"><defs><style>.a{fill:#ffcd34;}.b{fill:#fff;stroke:#fff;stroke-miterlimit:10;stroke-width:0.4px;}</style></defs><title>Extension logo</title><path d="M113.68 57.77a2.43 2.43 0 0 1 .84.54 2.7 2.7 0 0 1 .54.76 2.62 2.62 0 0 1-.1 2.46 2.3 2.3 0 0 1-1 1 2.54 2.54 0 0 1-1.3.36 2.63 2.63 0 0 1-1.33-.36 2.37 2.37 0 0 1-1-1 2.55 2.55 0 0 1-.33-1.32 2.34 2.34 0 0 1 .22-1.07 3.07 3.07 0 0 1 .63-.83 2.54 2.54 0 0 1 .75-.5 2.63 2.63 0 0 1 1.08-.25 2.46 2.46 0 0 1 1 .22zm1.84 1.16a3.46 3.46 0 0 0-.6-.88 3.25 3.25 0 0 0-1-.66 2.84 2.84 0 0 0-1.24-.27 3 3 0 0 0-1.32.3 3.15 3.15 0 0 0-.87.6 3.32 3.32 0 0 0-.64 1 3.17 3.17 0 0 0-.25 1.23 3.12 3.12 0 0 0 .42 1.55 2.8 2.8 0 0 0 1.14 1.14 3 3 0 0 0 2.9.1 3.08 3.08 0 0 0 1.5-1.62 3.24 3.24 0 0 0 .23-1.16 3.1 3.1 0 0 0-.28-1.33zm-2.92 1.72a1 1 0 0 1 .45.08.46.46 0 0 1 .2.2 1.14 1.14 0 0 1 .1.46 3.77 3.77 0 0 0 0 .52h.74a1.84 1.84 0 0 1 0-.46 2.55 2.55 0 0 0 0-.43 1.16 1.16 0 0 0-.14-.34.64.64 0 0 0-.25-.22 1.46 1.46 0 0 0-.36-.13.86.86 0 0 0 .37-.1.83.83 0 0 0 .3-.25.92.92 0 0 0 .12-.46.83.83 0 0 0-.12-.46.88.88 0 0 0-.3-.33 1.32 1.32 0 0 0-.48-.17 3.44 3.44 0 0 0-.6 0h-1.23V62h.78v-1.36zm.4-1.58a.46.46 0 0 1 .27.17.5.5 0 0 1 .1.3.6.6 0 0 1-.08.3.42.42 0 0 1-.26.2 1.14 1.14 0 0 1-.37.07h-.43V59h.5a1 1 0 0 1 .27.06zM100.97 47.7l-18.03-30h4.97V2.06H57.9V17.7h4.97l-6.9 11.45-6.9-11.45h4.98V2.06H24V17.7h4.96l-18.03 30H4.5v15.6h30.6V47.7h-5.5l9.42-15.64 3.64 6.05h-3.5v15.65h33.6V38.1h-3.5l3.63-6.04 9.4 15.63h-5.52v15.6h30.64V47.7h-6.45z" class="a"/><path d="M505.75 22.62l.14 4.86h-.65c-.6-3.12-1.32-3.63-5.45-3.63v14.47a2.16 2.16 0 0 0 2.45 2.46v.64h-7.6v-.68a2.17 2.17 0 0 0 2.45-2.46V23.85c-4.1 0-4.87.5-5.46 3.63H491l.14-4.86zM480.52 22.25c-4.67 0-8.45 3.83-8.45 9.8s3.78 9.78 8.45 9.78S489 38 489 32s-3.84-9.75-8.48-9.75zm0 18.42c-3.54 0-5.57-3.4-5.57-8.7s2-8.66 5.57-8.66S486 26.73 486 32s-2 8.74-5.5 8.74zM520.52 39.2c-.33-.9-6.67-16.86-6.67-16.86h-.63s-5.7 14.66-6.35 16.36-1.53 2.13-2.18 2.13v.68h5.15v-.67a1.5 1.5 0 0 1-1.6-1.32 2.36 2.36 0 0 1 .07-.7c0-.14.58-1.58 1.32-3.4h6.58l1.2 3.28a3.3 3.3 0 0 1 .2.83c0 .75-.58 1.33-1.7 1.33v.68h6.6v-.67a2.5 2.5 0 0 1-2-1.64zm-10.4-5.2l2.78-7.55 2.78 7.55zM453.24 36.6c-.84 2-1.9 3.7-4.9 3.7h-3c-1.1 0-1.58-.4-1.58-1.33v-6.7h4.08c1.58 0 2.4.87 2.63 2.54h.63v-6.57h-.58c-.1 1.82-1 2.7-2.46 2.7h-4.2V24.6c0-.7.42-.84 1-.84h3.62c2.26 0 3 .93 3.54 3h.63l-.13-4.28h-13.67v.68c1.58 0 2.3.75 2.3 2.46v12.66c0 1.7-.72 2.46-2.3 2.46v.68h13.94l1.2-4.9zM467.6 22.23l.53 6.24h-.68c-.93-3.07-2.5-5-4.76-5a2.4 2.4 0 0 0-2.56 2.53c0 1.67 1.22 2.63 2.75 3.68s2.54 1.7 3 2.07a6.1 6.1 0 0 1 2.74 4.76 5.26 5.26 0 0 1-5.12 5.4h-.16c-1.87 0-3-.93-4-.93-.5 0-.75.5-.88.93h-.63l-.8-6.3h.7c1.15 3.23 2.83 5.12 5.25 5.12a3 3 0 0 0 3.1-2.9q0-.14 0-.28A4 4 0 0 0 464 34.1l-3.72-2.62A5 5 0 0 1 458 27a4.5 4.5 0 0 1 4.25-4.76h.42c1.32 0 2.7.83 3.5.83a.84.84 0 0 0 .87-.8zM430.06 22.62v.68c1.47 0 2.36 1.13 2.36 2.84v10l-9.83-13.47h-4.27v.68a2.43 2.43 0 0 1 1.88.8l.55.73V37.5c0 2.17-.74 3.3-2.46 3.3v.68h6v-.68c-1.48 0-2.37-1-2.37-2.63v-11.6c3.6 4.85 11.33 15.28 11.33 15.28h.4V26.6c0-2.4 1-3.3 2.45-3.3v-.68zM409.1 22.62v.68c1.45 0 2.35 1.13 2.35 2.84v10l-9.84-13.47h-4.27v.68a2.46 2.46 0 0 1 1.88.83l.55.74v12.63c0 2.16-.74 3.3-2.46 3.3v.67h6v-.68c-1.48 0-2.37-1-2.37-2.63V26.6l11.34 15.3h.4V26.6c0-2.4 1-3.3 2.45-3.3v-.68zM383.75 17.17v-.68h-5.84l-7.6 20.42-7.66-20.43h-6v.67c2.5 0 3.2 1.32 3.2 3.83v15.36c0 3.55-1 4.47-3.24 4.47v.68h7.7v-.67c-2.16 0-3.18-.93-3.18-4.47v-16l7.9 21.27h.74l8.1-21.65v16.38c0 3.55-.8 4.47-3 4.47v.68h8.84v-.67c-2.16 0-3-.93-3-4.47v-15.7c.02-2.85 1.58-3.5 3.05-3.5zM391 25.77a2.16 2.16 0 0 1 2.45-2.46v-.68h-7.6v.68a2.17 2.17 0 0 1 2.45 2.46v12.66a2.17 2.17 0 0 1-2.46 2.46v.68h7.6v-.68a2.16 2.16 0 0 1-2.44-2.46zM321.27 22.28c-4.66 0-8.44 3.83-8.44 9.8s3.78 9.78 8.44 9.78 8.45-3.83 8.45-9.8-3.78-9.78-8.45-9.78zm0 18.42c-3.53 0-5.55-3.4-5.55-8.7s2-8.66 5.55-8.66 5.57 3.4 5.57 8.67-2 8.75-5.57 8.75zM346.1 22.62h-13.76v.68c1.58 0 2.3.75 2.3 2.46v12.66c0 1.7-.72 2.46-2.3 2.46v.68h7.32v-.68a2.15 2.15 0 0 1-2.4-2.46V32.3h4c1.57 0 2.4.87 2.62 2.54h.63v-6.57h-.67c-.1 1.82-1 2.7-2.46 2.7h-4v-6.33c0-.7.43-.84 1-.84h3.8c2.24 0 3 .93 3.52 3h.63zM283 22.65l.14 4.86h-.6c-.58-3.1-1.3-3.62-5.44-3.62v14.47a2.16 2.16 0 0 0 2.45 2.46v.7h-7.6v-.7a2.17 2.17 0 0 0 2.45-2.45V23.87c-4.1 0-4.87.5-5.46 3.63h-.63l.15-4.86zM297.52 23.33v-.68h5.8v.68a4 4 0 0 0-2.63 1.82c-.63 1-4.68 7.76-4.68 7.76v5.52c0 1.84.67 2.46 2.63 2.46v.68h-8v-.68c2 0 2.63-.62 2.63-2.46v-5.28s-4.47-7.12-5-8a3.67 3.67 0 0 0-2.63-1.87v-.68h7.46v.67c-1 0-1.75.46-1.75 1a2.18 2.18 0 0 0 .3 1c.1.22 3.77 6.24 3.77 6.24l3.73-6.5a1.32 1.32 0 0 0 .14-.6c-.03-.4-.3-1.07-1.78-1.07zM252.82 22.23l.54 6.24h-.68c-.93-3.07-2.5-5-4.76-5a2.4 2.4 0 0 0-2.55 2.53c0 1.67 1.22 2.63 2.75 3.68s2.55 1.7 3 2.07a6.1 6.1 0 0 1 2.75 4.76 5.26 5.26 0 0 1-5.18 5.35h-.18c-1.87 0-3.05-.93-3.95-.93-.5 0-.76.5-.88.93h-.64l-.8-6.3h.7c1.15 3.23 2.85 5.12 5.25 5.12a3 3 0 0 0 3.1-2.9q0-.14 0-.28a4 4 0 0 0-2.07-3.44l-3.7-2.6a5 5 0 0 1-2.35-4.46 4.5 4.5 0 0 1 4.22-4.76h.44c1.32 0 2.63.83 3.5.83a.83.83 0 0 0 .87-.77zM263.22 25.78a2.16 2.16 0 0 1 2.46-2.45v-.68h-7.62v.68a2.16 2.16 0 0 1 2.45 2.45v12.64a2.17 2.17 0 0 1-2.45 2.46v.68h7.62v-.68a2.17 2.17 0 0 1-2.45-2.46zM219.9 36.6c-.82 2-1.9 3.7-4.9 3.7h-3c-1.1 0-1.57-.4-1.57-1.33v-6.7h4.08c1.58 0 2.42.87 2.64 2.54h.64v-6.57h-.68c-.1 1.82-1 2.7-2.46 2.7h-4.22V24.6c0-.7.45-.84 1-.84h3.65c2.25 0 3 .93 3.53 3h.64l-.16-4.28h-13.56v.68c1.6 0 2.3.75 2.3 2.46v12.66c0 1.7-.7 2.46-2.3 2.46v.68h14l1.22-4.9zM237.88 40c-.43-.53-4.63-6.28-5.57-7.55 3.4-.72 4.6-2.45 4.6-4.92 0-3-2.22-4.9-6.25-4.9h-7.55v.67c1.58 0 2.3.75 2.3 2.46v12.66c0 1.7-.72 2.46-2.3 2.46v.68h7.32v-.68c-1.6 0-2.3-.75-2.3-2.46v-5.6h1.4l6.12 8.75h4.13V41a2.63 2.63 0 0 1-1.9-1zm-9.77-8.3v-6.38c0-1.32.26-1.62 1.72-1.62 3.2 0 4.37 1.57 4.37 4 0 2.9-2.2 4.08-5.46 4.08zM179.85 25.77a2.16 2.16 0 0 1 2.45-2.46v-.68h-7.6v.68a2.16 2.16 0 0 1 2.44 2.46v12.66a2.16 2.16 0 0 1-2.45 2.46v.68h7.6v-.68a2.16 2.16 0 0 1-2.45-2.46zM192.32 23.3v-.68h-6.92v.68c.84 0 1.72.54 2.3 2s6.82 16.52 6.82 16.52h.48s5.45-15.23 5.94-16.56 1.32-2 2.12-2v-.64h-5.36v.68c1.17 0 1.82.64 1.82 1.47a2.3 2.3 0 0 1-.14.74l-3.98 11.16-4.74-11.24a2.34 2.34 0 0 1-.16-.86c.02-.8.63-1.25 1.82-1.25zM128.88 17.17c2.05 0 3.13 1 3.13 4V32.8c0 5.92 3.25 9 8.9 9 4.87 0 8.6-3 8.6-8.64V20.42c0-2 .58-3.3 2.95-3.3v-.7H145v.68c2.12 0 3 .93 3.05 3.5s.18 9.2.18 13.15a6.28 6.28 0 0 1-6.68 6.53c-3.74 0-6.7-2.2-6.7-6.88v-13c0-1.93.75-3.24 2.96-3.24v-.66h-8.87zM164.7 22.62v.68c1.48 0 2.37 1.13 2.37 2.84v10l-9.82-13.47H153v.68a2.4 2.4 0 0 1 1.86.83l.54.74v12.63c0 2.16-.74 3.3-2.45 3.3v.67h6v-.68c-1.47 0-2.36-1-2.36-2.63V26.6c3.56 4.82 11.28 15.3 11.28 15.3h.4V26.6c0-2.4 1-3.3 2.44-3.3v-.68zM533.15 40.77a5.5 5.5 0 0 0 2.63-.74c.4-.34.62-1.22.62-2.63V20.66a4 4 0 0 0-.6-2.63 4.6 4.6 0 0 0-2.72-.76v-.7h20l.13 5.38h-1a5.26 5.26 0 0 0-1.42-3.2 7.9 7.9 0 0 0-4.26-.75h-5c-.55 0-.9.1-1 .26a1.82 1.82 0 0 0-.2 1v8.4h5.8a4.45 4.45 0 0 0 3.07-.7 6.3 6.3 0 0 0 1.06-2.9h.88v8.7h-.88a6.28 6.28 0 0 0-1.08-2.9 4.45 4.45 0 0 0-3-.7h-5.8v9.26c0 .75.24 1.18.7 1.32a24.44 24.44 0 0 0 4.25.2 14.15 14.15 0 0 0 5.65-.84 7.7 7.7 0 0 0 3.28-4h1l-1.7 6.37h-20.4zM557 41a3.4 3.4 0 0 0 1.75-.6 24.83 24.83 0 0 0 2.36-2.62l4.45-5.48-3.15-4.62a25.2 25.2 0 0 0-2.92-3.68 3.46 3.46 0 0 0-2.2-.8v-.52h8.58v.53a7.3 7.3 0 0 0-1.62.18.76.76 0 0 0-.57.8 2.16 2.16 0 0 0 .28.92 6.2 6.2 0 0 0 .38.63l3 4.28 3.2-4a7.9 7.9 0 0 0 1-1.3 1.32 1.32 0 0 0 .13-.63.8.8 0 0 0-.6-.83 5.58 5.58 0 0 0-1.33-.14v-.53h6.76v.53a4 4 0 0 0-1.8.37 9.57 9.57 0 0 0-2.44 2.34L568.1 31l5.4 7.83a5.63 5.63 0 0 0 1.4 1.6 4.72 4.72 0 0 0 1.7.5v.53h-8.4v-.53a6.08 6.08 0 0 0 1.68-.2.68.68 0 0 0 .47-.7 3.6 3.6 0 0 0-.63-1.5q-.63-1-3.5-5.27l-3.35 4.2c-.5.63-.83 1.08-1 1.32a2.12 2.12 0 0 0-.45 1c0 .4.22.68.7.86a6.3 6.3 0 0 0 1.47.22v.56H557zM579.17 22.65h16.13l.16 4.86h-.68a5.86 5.86 0 0 0-1.32-3 5.26 5.26 0 0 0-3.26-.67h-1.54v14.6c0 1.08.17 1.77.5 2a4.9 4.9 0 0 0 2.27.52v.53h-8.3V41a4 4 0 0 0 2.25-.6 3.86 3.86 0 0 0 .43-2.3V23.84h-1.58a5.4 5.4 0 0 0-3.22.68 5.1 5.1 0 0 0-1.32 3H579zM597.87 41a4.32 4.32 0 0 0 2-.57c.3-.26.46-.93.46-2v-12.7a3 3 0 0 0-.46-2 3.46 3.46 0 0 0-2-.57v-.53H613l.1 4.08h-.73a4.07 4.07 0 0 0-1.08-2.42 6.1 6.1 0 0 0-3.25-.55h-3.88c-.42 0-.68 0-.78.2a1.32 1.32 0 0 0-.17.76v6.36h4.4a3.38 3.38 0 0 0 2.34-.54 4.7 4.7 0 0 0 .8-2.2h.7v6.58h-.66a4.84 4.84 0 0 0-.8-2.2 3.37 3.37 0 0 0-2.33-.53h-4.37v7c0 .58.18.9.54 1a17.67 17.67 0 0 0 3.22.16 10.92 10.92 0 0 0 4.3-.64 5.82 5.82 0 0 0 2.46-3.08h.8l-1.33 4.82h-15.4zM616.44 41a3.43 3.43 0 0 0 2.28-.8 5.16 5.16 0 0 0 .5-2.88V24.75l-.38-.46a3 3 0 0 0-1.07-.92 4 4 0 0 0-1.32-.2v-.54h4.88l11 13.66v-9.48a4.57 4.57 0 0 0-.7-3 3.54 3.54 0 0 0-2-.6v-.52h6.7v.53a3.33 3.33 0 0 0-2.16.8 4.8 4.8 0 0 0-.55 2.87v15h-.5l-12.6-15.7v11.12a4.72 4.72 0 0 0 .67 3 3.5 3.5 0 0 0 2 .63v.53h-6.72zM639 35.8a10 10 0 0 0 1.7 3.07 5.26 5.26 0 0 0 4.2 2 3.5 3.5 0 0 0 2.37-.86 3 3 0 0 0 1-2.4 3.4 3.4 0 0 0-1-2.43 17.7 17.7 0 0 0-2.75-2l-2.43-1.53a8.4 8.4 0 0 1-1.76-1.4 4.33 4.33 0 0 1-1.22-3 4.9 4.9 0 0 1 1.4-3.57 5.13 5.13 0 0 1 3.8-1.43 7.15 7.15 0 0 1 2.35.5 10.3 10.3 0 0 0 1.57.46.9.9 0 0 0 .76-.2 1.88 1.88 0 0 0 .32-.7h.58l.64 6.07h-.68a6.45 6.45 0 0 0-2.24-3.83 5.26 5.26 0 0 0-3.08-1.07 3.2 3.2 0 0 0-2 .7 2.3 2.3 0 0 0-.94 1.83 2.78 2.78 0 0 0 .67 1.88 8.53 8.53 0 0 0 2.07 1.66l2.5 1.55a13.16 13.16 0 0 1 3.33 2.62 4.62 4.62 0 0 1 1 2.9 4.8 4.8 0 0 1-1.65 3.77 6.25 6.25 0 0 1-4.33 1.5 8.54 8.54 0 0 1-2.77-.5 9.32 9.32 0 0 0-1.66-.5.74.74 0 0 0-.68.3 2.16 2.16 0 0 0-.23.66h-.63l-.84-6.08zM653.8 41a4.82 4.82 0 0 0 2.25-.53c.34-.26.5-1 .5-2V25.74a2.78 2.78 0 0 0-.5-2 4.1 4.1 0 0 0-2.25-.54v-.53h8.44v.53a4.1 4.1 0 0 0-2.25.54 2.78 2.78 0 0 0-.54 2v12.68c0 1.1.18 1.78.53 2a4.82 4.82 0 0 0 2.24.53v.53h-8.44zM666.93 24.77a9.6 9.6 0 0 1 13 0 9.7 9.7 0 0 1 2.86 7.32 9.58 9.58 0 0 1-3 7.37 9 9 0 0 1-6.4 2.46 8.88 8.88 0 0 1-6.67-2.72 10.78 10.78 0 0 1 .17-14.47zm2.13 14a5.47 5.47 0 0 0 8.67 0q1.8-2.1 1.8-6.7t-1.8-6.65a5.5 5.5 0 0 0-4.3-2.08 5.44 5.44 0 0 0-4.35 2.15 10.37 10.37 0 0 0-1.78 6.66 10.36 10.36 0 0 0 1.76 6.6zM684.73 41a3.43 3.43 0 0 0 2.28-.8 5.26 5.26 0 0 0 .5-2.88V24.75l-.38-.46a2.87 2.87 0 0 0-1.07-.92 3.83 3.83 0 0 0-1.32-.2v-.54h4.87l10.9 13.67v-9.48a4.65 4.65 0 0 0-.7-3 3.58 3.58 0 0 0-2-.6v-.52h6.7v.53a3.37 3.37 0 0 0-2.16.8 4.92 4.92 0 0 0-.54 2.87v15h-.5l-12.64-15.7v11.12a4.7 4.7 0 0 0 .68 3 3.47 3.47 0 0 0 2 .63v.53h-6.6z" class="b"/></svg>